<svg width="640" height="420" viewBox="0 0 640 420" fill="none" xmlns="http://www.w3.org/2000/svg">
  <rect width="640" height="420" rx="28" fill="#0D1728"/>
  <path d="M0 310C87 250 146 241 221 273C304 309 372 319 445 278C517 237 558 225 640 252V420H0V310Z" fill="url(#paint0_linear)"/>
  <path d="M0 276C72 224 141 215 224 251C300 284 380 288 447 248C530 199 562 195 640 222" stroke="#9EFF00" stroke-width="12" stroke-linecap="round"/>
  <circle cx="135" cy="132" r="47" fill="#FF6B2C"/>
  <circle cx="481" cy="109" r="68" fill="#9EFF00" fill-opacity="0.18"/>
  <rect x="72" y="80" width="167" height="34" rx="17" fill="white" fill-opacity="0.08"/>
  <rect x="82" y="89" width="90" height="16" rx="8" fill="#F4F7FB" fill-opacity="0.75"/>
  <rect x="72" y="138" width="226" height="18" rx="9" fill="white" fill-opacity="0.08"/>
  <rect x="72" y="170" width="188" height="18" rx="9" fill="white" fill-opacity="0.08"/>
  <defs>
    <linearGradient id="paint0_linear" x1="320" y1="221" x2="320" y2="420" gradientUnits="userSpaceOnUse">
      <stop stop-color="#FF6B2C" stop-opacity="0.6"/>
      <stop offset="1" stop-color="#9EFF00" stop-opacity="0.22"/>
    </linearGradient>
  </defs>
</svg>
