<svg width="920" height="700" viewBox="0 0 920 700" fill="none" xmlns="http://www.w3.org/2000/svg">
  <rect width="920" height="700" rx="40" fill="url(#paint0_linear)"/>
  <circle cx="714" cy="152" r="118" fill="#9EFF00" fill-opacity="0.18"/>
  <circle cx="196" cy="126" r="86" fill="#FF6B2C" fill-opacity="0.16"/>
  <path d="M110 520C220 430 315 410 430 454C550 500 645 486 808 360" stroke="#9EFF00" stroke-width="18" stroke-linecap="round"/>
  <path d="M108 563C231 491 339 475 444 513C558 554 651 544 796 441" stroke="white" stroke-opacity="0.28" stroke-width="8" stroke-linecap="round"/>
  <rect x="64" y="70" width="792" height="510" rx="28" fill="url(#paint1_linear)" stroke="white" stroke-opacity="0.14"/>
  <rect x="108" y="118" width="704" height="414" rx="20" fill="#0C1729"/>
  <path d="M108 325H812" stroke="white" stroke-opacity="0.12" stroke-width="3"/>
  <path d="M460 118V532" stroke="white" stroke-opacity="0.12" stroke-width="3"/>
  <circle cx="460" cy="325" r="72" stroke="white" stroke-opacity="0.12" stroke-width="3"/>
  <path d="M228 410C228 343.726 281.726 290 348 290H418V530H348C281.726 530 228 476.274 228 410Z" fill="#15243D"/>
  <path d="M502 316C502 263.503 544.503 221 597 221H666V411H597C544.503 411 502 368.497 502 316Z" fill="#142035"/>
  <circle cx="626" cy="210" r="50" fill="#FF6B2C"/>
  <path d="M603 253H649L676 351H647L636 323H594L583 351H555L603 253ZM602 303H629L616 271L602 303Z" fill="#201006"/>
  <circle cx="355" cy="266" r="42" fill="#9EFF00"/>
  <path d="M347 311L334 390H357L365 340L394 388H423L386 329L425 280H394L365 315L373 255H350L341 311H347Z" fill="#101A05"/>
  <rect x="152" y="144" width="164" height="48" rx="24" fill="white" fill-opacity="0.08"/>
  <rect x="604" y="466" width="170" height="46" rx="23" fill="#FF6B2C"/>
  <text x="182" y="174" fill="#F4F7FB" font-family="Arial, sans-serif" font-size="22" font-weight="700">LIVE REGISTRATION</text>
  <text x="631" y="495" fill="#2B0D02" font-family="Arial, sans-serif" font-size="22" font-weight="700">MATCH DAY</text>
  <defs>
    <linearGradient id="paint0_linear" x1="89" y1="29" x2="789" y2="681" gradientUnits="userSpaceOnUse">
      <stop stop-color="#101B31"/>
      <stop offset="1" stop-color="#09111D"/>
    </linearGradient>
    <linearGradient id="paint1_linear" x1="104" y1="92" x2="746" y2="546" gradientUnits="userSpaceOnUse">
      <stop stop-color="white" stop-opacity="0.12"/>
      <stop offset="1" stop-color="white" stop-opacity="0.04"/>
    </linearGradient>
  </defs>
</svg>
